<?xml version="1.0" encoding="UTF-8" standalone="no"?>
<!-- Created with Inkscape (http://www.inkscape.org/) -->

<svg
   xmlns:dc="http://purl.org/dc/elements/1.1/"
   xmlns:cc="http://creativecommons.org/ns#"
   xmlns:rdf="http://www.w3.org/1999/02/22-rdf-syntax-ns#"
   xmlns:svg="http://www.w3.org/2000/svg"
   xmlns="http://www.w3.org/2000/svg"
   xmlns:sodipodi="http://sodipodi.sourceforge.net/DTD/sodipodi-0.dtd"
   xmlns:inkscape="http://www.inkscape.org/namespaces/inkscape"
   width="10.87205cm"
   height="21.744102cm"
   viewBox="0 0 385.23012 770.46032"
   id="svg2"
   version="1.1"
   inkscape:version="0.91 r13725"
   sodipodi:docname="18.svg">
  <defs
     id="defs4" />
  <sodipodi:namedview
     id="base"
     pagecolor="#ffffff"
     bordercolor="#666666"
     borderopacity="1.0"
     inkscape:pageopacity="0.0"
     inkscape:pageshadow="2"
     inkscape:zoom="0.69309213"
     inkscape:cx="340.89279"
     inkscape:cy="300.39465"
     inkscape:document-units="px"
     inkscape:current-layer="layer1"
     showgrid="false"
     showguides="true"
     inkscape:guide-bbox="true"
     fit-margin-top="0"
     fit-margin-left="0"
     fit-margin-right="0"
     fit-margin-bottom="0"
     units="cm"
     inkscape:window-width="1920"
     inkscape:window-height="1033"
     inkscape:window-x="0"
     inkscape:window-y="0"
     inkscape:window-maximized="1">
    <sodipodi:guide
       position="385.23018,45.230151"
       orientation="1,0"
       id="guide4136" />
    <sodipodi:guide
       position="525.23019,385.23016"
       orientation="0,1"
       id="guide4138" />
  </sodipodi:namedview>
  <metadata
     id="metadata7">
    <rdf:RDF>
      <cc:Work
         rdf:about="">
        <dc:format>image/svg+xml</dc:format>
        <dc:type
           rdf:resource="http://purl.org/dc/dcmitype/StillImage" />
        <dc:title></dc:title>
      </cc:Work>
    </rdf:RDF>
  </metadata>
  <g
     inkscape:label="Calque 1"
     inkscape:groupmode="layer"
     id="layer1"
     transform="translate(2.3730415,-98.560576)">
    <rect
       style="opacity:1;fill:#ed9c2e;fill-opacity:1;stroke:none;stroke-width:15;stroke-linecap:square;stroke-linejoin:miter;stroke-miterlimit:4;stroke-dasharray:none;stroke-dashoffset:0;stroke-opacity:1"
       id="rect4146"
       width="544.79773"
       height="544.79773"
       x="340.41373"
       y="-201.02802"
       transform="matrix(0.70710678,0.70710678,-0.70710678,0.70710678,0,0)" />
    <path
       style="opacity:1;fill:#2ee9ed;fill-opacity:1;stroke:none;stroke-width:100;stroke-linecap:square;stroke-linejoin:miter;stroke-miterlimit:4;stroke-dasharray:none;stroke-dashoffset:0;stroke-opacity:1"
       d="M 596.72526,410.04826 A 102.97229,102.97229 0 0 1 467.97402,396.46741 102.97229,102.97229 0 0 1 453.82148,268.75793 226.53902,226.53902 0 0 0 310.16254,269.5965 102.97229,102.97229 0 0 1 295.46563,396.46741 102.97229,102.97229 0 0 1 168.59473,411.1522 226.53902,226.53902 0 0 0 167.7425,554.78535 102.97229,102.97229 0 0 1 295.46563,568.97579 102.97229,102.97229 0 0 1 309.00099,697.66335 226.53902,226.53902 0 0 0 454.8678,698.52617 102.97229,102.97229 0 0 1 467.97402,568.97579 102.97229,102.97229 0 0 1 597.2196,555.79527 226.53902,226.53902 0 0 0 596.72526,410.04826 Z"
       id="path4594"
       inkscape:connector-curvature="0" />
  </g>
</svg>
